<svg id="Layer_3" data-name="Layer 3" xmlns="http://www.w3.org/2000/svg" viewBox="0 0 615.15 621.64"><defs><style>.cls-1{fill:#c49a6c;}.cls-2{fill:#fff;}.cls-3{fill:#d09244;}</style></defs><path class="cls-1" d="M484.69,685.1c-16.67-2.87-33.41-.79-47.26-1.61-15.7,0-28.56.17-41.41-.08-5.53-.11-8.81.25-8.8,7.52s3.33,7.13,8.49,7.1c23.53-.14,47.09.6,70.59-.2,35.94-1.22,62.94,26.07,64.76,56.52.45,7.53,5.94,4.5,9.68,4.92,4.65.53,4.86-2.61,4.69-6.11C543.85,720.89,516.64,690.61,484.69,685.1Z" transform="translate(-232.42 -229.18)"/><path class="cls-1" d="M475.84,711.54c-32.23-.84-64.5-.4-96.75-.45-1.82,0-3.83-.38-4.89,2-2.93,6.7.53,12.29,7.82,12.29q42.93,0,85.85,0c7.66,0,15,.82,21.06,6.13,3,2.81,5.93,5.75,8.83,8.69,3.62,3.89,5.13,8.82,5.59,13.82.77,8.42,7,4.84,11,5.15,5.36.41,3.71-4,3.45-6.79C515.88,732.11,496.22,712.07,475.84,711.54Z" transform="translate(-232.42 -229.18)"/><path class="cls-1" d="M695.53,711c-26.14.13-52.28.36-78.42,0-12.75-.17-25.08.59-36.47,7-4.42,2.8-7,8.26-13,8.84h0l-3.25-8.17c.58-7.08,7.64-8.3,11.37-12.55,11.74-6.57,24.48-8.58,37.76-8.54,23.26.07,46.52-.16,69.79,0,4.74,0,6.51-1.5,6.27-6.26-.23-4.42-.12-7.86-6.42-7.79-25.69.25-51.38-.13-77.06.08-13.24.11-25.85,3.2-37.16,10.49a24.64,24.64,0,0,0-11.69,8.56h0c-3.55-1.91-4.84-5.8-7.48-8.49h0c1-5.94,7.43-6.62,10.27-10.75h0a95.33,95.33,0,0,1,26.16-10.15l11.46-1.75V592a10.21,10.21,0,0,1-6.27-9.28c0-1.12,0-2.24,0-3.56H586c-6.39,0-10.11-3.64-10.21-10,0-.38,0-.77-.08-1.23-3.93-.31-5-.92-5-2.78s.93-2.3,4.94-2.79c.09-1.13.12-2.3.29-3.45a8.66,8.66,0,0,1,5.19-6.9,1.65,1.65,0,0,0,1.13-2,71.75,71.75,0,0,0-11.43-32.76c-3.26-5-6.06-10.12-7.39-16-4.89-21.68,10.39-43.95,32.32-46.81a39.92,39.92,0,0,1,20.46,2.29,42.56,42.56,0,0,1,9.36,5.55,47.33,47.33,0,0,1,7.54,7.78c.17.23.35.45.62.79h0a37,37,0,0,1,2.78,4.71l-.06,0a39,39,0,0,1,3.13,9l.15.69a45.17,45.17,0,0,1,.74,5.36h0a38,38,0,0,1-.16,6.19,2.7,2.7,0,0,0-.12.65c-.09,1-.23,1.91-.41,2.86a41.4,41.4,0,0,1-2.65,8.46l-.18.42c-.05.12-.11.25-.17.37-.21.45-.43.91-.65,1.36h0a45.65,45.65,0,0,1-2.71,4.68l-.05,0c-.31.4-.6.71-.84,1.06-.45.68-.88,1.35-1.31,2h0a70.91,70.91,0,0,0-10.45,31.64,1.65,1.65,0,0,0,.61,1.36,9.37,9.37,0,0,1,5.87,9.55,12.53,12.53,0,0,0,.09,1.27c.79,0,1.56,0,2.32,0a2.66,2.66,0,0,1,0,5.32c-.73,0-1.46,0-2.42,0,0,.91,0,1.68,0,2.45a9.06,9.06,0,0,1-8.75,8.88c-1.83.08-3.66.09-5.48,0-1.15-.06-1.42.38-1.4,1.45a18.53,18.53,0,0,1-.28,4.41,9.84,9.84,0,0,1-5.86,6.93v78.61q6.87-.41,13.92-.14c16.48.62,33-.19,49.5.29a12.16,12.16,0,0,0,3-.23h3.86V388.35H400.77V670.5h4.53a13.16,13.16,0,0,0,3,.22c21.81-.4,43.65-.56,65.47,0,24.4.62,44.84,10.75,61.36,28.5,15.46,16.61,22.75,36.73,24.08,59.18h0c2.7,2.37,5.91.88,8.89,1.1,2.39.18,5,.17,5.23-3.29.55-9.38,5.95-16.31,11.59-23.13h0c7.49-6.25,16.24-7.74,25.76-7.66,28.32.23,56.64-.13,85,.16,6.47.06,7.32-2.64,7.5-8.17C703.33,711.17,700.1,711,695.53,711Zm-53-180.31c-.29.76-1.3,1.23-1.88,1.73-.87-.26-1.46-.26-1.77-.56a69.69,69.69,0,0,1-5.07-5.1,2.42,2.42,0,0,1,.55-3.31,2.55,2.55,0,0,1,3.39-.08,42.12,42.12,0,0,1,4.53,4.63A3.18,3.18,0,0,1,642.51,530.73Zm6.45-40.2c2.63,0,5.26,0,7.88,0,1.3,0,2.21,1.18,2.19,2.73s-.87,2.6-2.14,2.63-2.62,0-3.94,0-2.7,0-4.05,0-2.11-1.12-2.12-2.63S647.65,490.54,649,490.53Zm-15.12-31c1.59-1.67,3.17-3.35,4.9-4.87a2.53,2.53,0,0,1,3.46.44,2.64,2.64,0,0,1,0,3.51,36.69,36.69,0,0,1-4.41,4.32,3.63,3.63,0,0,1-3,.3c-.74-.26-1.18-1.36-1.67-2C633.5,460.39,633.54,459.81,633.84,459.49Zm-35-18.29a2.55,2.55,0,0,1,2.79-2.3,2.58,2.58,0,0,1,2.5,2.61c.05,1,0,2,0,3h0c0,1,0,2,0,3a2.66,2.66,0,0,1-5.29.28A58.91,58.91,0,0,1,598.88,441.2Zm-33.46,82a2.53,2.53,0,0,1,3.38.07,2.43,2.43,0,0,1,.56,3.32c-1.57,1.81-3.33,3.45-5.07,5.1-.32.29-.91.3-1.77.56-.58-.5-1.59-1-1.89-1.74a3.19,3.19,0,0,1,.26-2.69A42,42,0,0,1,565.42,523.22ZM561,454.86a2.51,2.51,0,0,1,3.45-.44c1.73,1.52,3.32,3.21,4.9,4.88.31.32.35.89.64,1.72-.48.61-.92,1.71-1.66,2a3.63,3.63,0,0,1-2.95-.3,35.27,35.27,0,0,1-4.41-4.32A2.62,2.62,0,0,1,561,454.86ZM534.63,679.47c-18-15.22-39-22.82-62.64-23.16-18.94-.28-37.88,0-56.81-.15V547.89H534.63Zm0-138.79H415.18V402.5H534.63Zm11.36-45c-1.3,0-2.16-1.11-2.19-2.64a2.43,2.43,0,0,1,2.25-2.73c2.69,0,5.39,0,8.08,0,1.35,0,2.25,1.15,2.24,2.73a2.38,2.38,0,0,1-2.18,2.64c-1.38,0-2.77,0-4.15,0S547.34,495.73,546,495.7Z" transform="translate(-232.42 -229.18)"/><path class="cls-1" d="M581.29,559.6a20.19,20.19,0,0,0,0,2.81H621.9c0-.71,0-1.34,0-2-.09-2.29-1.12-3.29-3.36-3.29H584.2A2.54,2.54,0,0,0,581.29,559.6Z" transform="translate(-232.42 -229.18)"/><path class="cls-1" d="M586.21,573.88q15.38-.24,30.75,0c3.72.06,5.63-2.45,4.74-6H581.32C580.6,571.67,582.41,573.94,586.21,573.88Z" transform="translate(-232.42 -229.18)"/><path class="cls-1" d="M580.36,511.33a5.75,5.75,0,0,0,8.89,2,2,2,0,0,1,1.57-.23,43.36,43.36,0,0,1,4.35,1.81c.39.18.93.7.89,1-.24,1.72,1,2.68,1.77,3.9a5.08,5.08,0,0,1,.89,2.5c.06,9.08,0,18.15,0,27.23v2h5.55v-2.18c0-8.69,0-17.37,0-26a6,6,0,0,1,1.47-4.27c.63-.75.72-1.93,1.18-2.85a3,3,0,0,1,1.16-1.29c1.09-.56,2.31-.87,3.39-1.44s2-.82,2.81.36a2.11,2.11,0,0,0,1.15.58c2.42.61,4.6.6,6.31-1.75,1.06-1.45,1.62-5,.3-6.27s-1-2.11-.32-3.33a8.54,8.54,0,0,0,.85-2c.4-1.34.82-2.57,2.65-2.16a1.32,1.32,0,0,0,.82-.3c2-1.36,3.81-2.67,3.41-5.63-.32-2.33-2.52-4.89-4.93-4.91a1.51,1.51,0,0,1-1.6-1.19c-.49-1.34-1.14-2.62-1.61-4a2,2,0,0,1,.07-1.59c2.15-2.93,2-5.38-.5-7.89-1.37-1.35-5-1.87-6.32-.53s-2.31,1-3.6.28a8.28,8.28,0,0,0-2-.84c-1.32-.34-2.35-.8-2-2.48a1.27,1.27,0,0,0-.27-.83c-1.37-2-2.71-4-5.73-3.51-1.8.28-4.83,2.45-4.79,4.26s-.72,2.26-2.12,2.59a7.36,7.36,0,0,0-1.78.71c-1.34.74-2.64,1.49-3.81-.27a1,1,0,0,0-.66-.3c-2.36-.47-4.6-.8-6.37,1.57-1.12,1.51-1.9,5-.55,6.23,1.6,1.49.94,2.63.21,4a7,7,0,0,0-.66,1.64c-.33,1.37-.84,2.44-2.56,2.1a1.31,1.31,0,0,0-.82.28c-2.13,1.38-3.94,2.84-3.48,5.89.3,2,2.79,4.75,4.88,4.67a1.5,1.5,0,0,1,1.7,1.24,33.53,33.53,0,0,0,1.52,3.68,1.62,1.62,0,0,1-.35,2.22C580.38,506.74,579.84,510.21,580.36,511.33Zm21.13-27.17a9.13,9.13,0,0,1,9.16,9.25,9,9,0,0,1-9.17,9,9.12,9.12,0,0,1-9.13-9.12A9.23,9.23,0,0,1,601.49,484.16Z" transform="translate(-232.42 -229.18)"/><path class="cls-1" d="M601.87,587.39a4.74,4.74,0,0,0,4.33-4.15c.1-1.27,0-2.55,0-4-3,0-5.8,0-8.59,0-.29,0-.82.46-.82.71a18.65,18.65,0,0,0,.25,4.1A4.66,4.66,0,0,0,601.87,587.39Z" transform="translate(-232.42 -229.18)"/><path class="cls-1" d="M476.91,451.7a14,14,0,0,0-14.12,13.87,14.15,14.15,0,1,0,28.3.34A14,14,0,0,0,476.91,451.7Zm.25,23.63a9.62,9.62,0,0,1-9.92-9.61,10.08,10.08,0,0,1,9.5-9.77c5.12-.18,9.93,4.55,9.94,9.77A9.7,9.7,0,0,1,477.16,475.33Z" transform="translate(-232.42 -229.18)"/><path class="cls-1" d="M514.72,453.22c-5-16-20.5-27.27-37.49-27.39-17.19-.12-32.88,11-38,27.26-4.13,13.2-7.92,26.51-11.85,39.78a5.14,5.14,0,0,0,.07,1.35H437V515.9h19.44v16.55h46.14c0-11.11-.09-22,.09-32.77a8.17,8.17,0,0,1,2-5C516.05,482.73,519.69,469.05,514.72,453.22Zm-12.13,15.5c-7.88-1.81-5.92,5.85-9.14,8.85l4,4.53-5,3.3c-1.78-2.27-4-3.1-7.86-1.19-3.28,1.64-5.37,2.91-4.47,7.1H474c.34-3.64-.91-5.68-4.78-7.11-3.55-1.3-5.84-1.57-8,1.77l-4.09-4.55,3.37-3.85c-3.21-3-1.25-10.65-9.23-8.81v-6l5.72-.46c-.5-4.19,6.82-8,0-12.3l4.19-4.32,4.07,3.63c2.47-3.55,10.5-.91,8.5-9.15h6.42c-1.85,7.74,5.7,5.79,8.56,9.07l4.68-4,3.13,4.89c-6.09,3.81.4,7.84.7,12.37h5.42Z" transform="translate(-232.42 -229.18)"/><path class="cls-1" d="M477.13,462.52c-.84.06-1.63.89-2.42,1.74a2,2,0,0,0-.12,2.52A5.35,5.35,0,0,0,477,469c.66.18,1.56-.56,2.76-1.54a2.13,2.13,0,0,0,.06-3.25C478.75,463.2,477.91,462.46,477.13,462.52Z" transform="translate(-232.42 -229.18)"/><polygon class="cls-1" points="244.53 329.18 258.71 357.9 290.4 362.5 267.47 384.86 272.88 416.42 244.53 401.52 216.19 416.42 221.6 384.86 198.67 362.5 230.36 357.9 244.53 329.18"/><path class="cls-2" d="M274.4,606.25l-33.24,6.82-1.31-6.4,14.05-2.88-3.21-15.7L236.63,591l-1.31-6.4,33.24-6.81,1.31,6.39-14.2,2.91,3.22,15.71,14.2-2.91Z" transform="translate(-232.42 -229.18)"/><path class="cls-2" d="M265.44,536.59l-33-15.39.55-8.48,34.62-9.56-.44,6.8-11.21,3-.78,12.17,10.7,4.87Zm-15-13.56.56-8.77-14.15,3.23Z" transform="translate(-232.42 -229.18)"/><path class="cls-2" d="M276.12,462.75l-32.27-10.48,3.82-11.78a12.81,12.81,0,0,1,5.66-7.55,10.89,10.89,0,0,1,9.09-.58,10.76,10.76,0,0,1,6.85,6.29q2,4.71-.18,11.42l-.72,2.19-4.88-1.58.8-2.47a8.59,8.59,0,0,0,.16-6,6,6,0,0,0-3.93-3.35q-6.21-2-8.24,4.24l-1.47,4.51,27.34,8.89Z" transform="translate(-232.42 -229.18)"/><path class="cls-2" d="M301.7,401.61l-28.83-17.9,6.53-10.52a12.76,12.76,0,0,1,7.3-6q4.37-1.24,9,1.61a10.72,10.72,0,0,1,5.14,7.74q.81,5.06-2.91,11.05l-1.21,2-4.37-2.71,1.37-2.2a8.5,8.5,0,0,0,1.59-5.79,5.94,5.94,0,0,0-3-4.19q-5.53-3.45-9,2.14l-2.51,4L305.17,396Z" transform="translate(-232.42 -229.18)"/><path class="cls-2" d="M345.7,344l-8.15-8.35-24.11-7.57,5.39-5.27,17.37,6.38-5.6-17.89,5.22-5.09L342.15,331l8.26,8.44Z" transform="translate(-232.42 -229.18)"/><path class="cls-2" d="M416.22,292.9l-14.64-30.61,5.89-2.81,14.64,30.61Z" transform="translate(-232.42 -229.18)"/><path class="cls-2" d="M464.41,273.63l-7.59-33.08,7.81-1.79,20.29,22.08L483.84,257l-4.94-21.52,6.41-1.47,7.59,33.07L484.72,269l-19.85-21.64,1.11,4,4.8,20.87Z" transform="translate(-232.42 -229.18)"/><path class="cls-2" d="M537.68,263.08l1.59-33.9,8,.38,13.6,26.73v-4l1-22.06,6.57.31-1.59,33.9-8.39-.39L545.2,237.87V242l-1,21.38Z" transform="translate(-232.42 -229.18)"/><path class="cls-2" d="M625.4,277.89q-8-2.64-10.73-8.52t-.17-13.66q2.52-7.56,8.7-10.49t14.11-.29q8.06,2.67,10.69,8.61t.14,13.44q-2.57,7.71-8.57,10.66T625.4,277.89Zm1.78-4.92c3.65,1.21,6.7,1,9.18-.52a13.62,13.62,0,0,0,5.46-7.61,13.42,13.42,0,0,0,.13-9.32c-1.07-2.71-3.3-4.64-6.7-5.76s-6.53-1-9,.52a13.2,13.2,0,0,0-5.44,7.48,14,14,0,0,0-.22,9.33Q622.08,271.27,627.18,273Z" transform="translate(-232.42 -229.18)"/><path class="cls-2" d="M686.66,306.22l8.82-34.84,5.8,3.83-8.21,29.32,25-18.23,5.53,3.65-29.76,21Z" transform="translate(-232.42 -229.18)"/><path class="cls-2" d="M730.91,340.57l34-13,5.72,6.28-17.2,31.53-4.58-5,5.61-10.17-8.2-9-10.94,4.31Zm20.18-1.35,5.91,6.5,7.52-12.42Z" transform="translate(-232.42 -229.18)"/><path class="cls-2" d="M778.11,402.74,803.29,389,798,379.31l4.59-2.51,13.71,25.05-4.59,2.51-5.28-9.64-25.17,13.79Z" transform="translate(-232.42 -229.18)"/><path class="cls-2" d="M801.36,456.72l32.54-9.63,1.85,6.26L803.21,463Z" transform="translate(-232.42 -229.18)"/><path class="cls-2" d="M812.5,522.57q-.43-8.39,4-13.09c3-3.14,7.2-4.84,12.67-5.13q7.95-.41,12.93,4.29t5.41,13q.44,8.49-4.13,13.09c-3,3.08-7.2,4.75-12.48,5s-9.75-1.09-13-4.1S812.8,528.29,812.5,522.57Zm5.23-.13q.3,5.76,3.82,8.36a13.7,13.7,0,0,0,9.08,2.32,13.38,13.38,0,0,0,8.73-3.27q3.21-3,2.93-8.34-.28-5.57-3.76-8.19a13.19,13.19,0,0,0-8.94-2.35,14.07,14.07,0,0,0-8.78,3.19C818.57,516.1,817.55,518.86,817.73,522.44Z" transform="translate(-232.42 -229.18)"/><path class="cls-2" d="M809.89,583.38,843,590.89l-1.77,7.82-28.7,8.7,3.93.69L838,613l-1.46,6.41-33.09-7.51,1.86-8.19,28.11-8.49-4.07-.72-20.88-4.74Z" transform="translate(-232.42 -229.18)"/><path class="cls-2" d="M343.65,784.8a22.14,22.14,0,0,1-7-8.3l4.49-2.65a23.51,23.51,0,0,0,5.78,6.57,10.22,10.22,0,0,0,4.57,2.25,3.64,3.64,0,0,0,4.14-3.83,8,8,0,0,0-.74-2.84c-.44-1-1-2-1.6-3.1s-1.22-2.23-1.78-3.42a18,18,0,0,1-1.26-3.53,8.8,8.8,0,0,1,0-3.76,9.15,9.15,0,0,1,1.82-3.82,7.57,7.57,0,0,1,6.7-3.18,13.87,13.87,0,0,1,7.76,3.12,24,24,0,0,1,6.39,7.59l-4.34,2.52a26.11,26.11,0,0,0-5.17-5.78q-4.09-3.2-6.24-.42a3.25,3.25,0,0,0-.52,2.66,10.28,10.28,0,0,0,1.24,3.37c.64,1.15,1.31,2.45,2,3.9a41.51,41.51,0,0,1,1.76,4.23,9.81,9.81,0,0,1,.46,4.37,8.49,8.49,0,0,1-1.82,4.33,8.34,8.34,0,0,1-7.61,3.57A17,17,0,0,1,343.65,784.8Z" transform="translate(-232.42 -229.18)"/><path class="cls-2" d="M413.69,826.52q-8.1-3.64-10.54-9.73t.89-13.54q3.51-7.8,9.6-10.06t14.19,1.37a25.62,25.62,0,0,1,8.58,6l-3.58,3.76c-1-.82-1.63-1.38-2-1.67s-1-.73-2-1.33a25.87,25.87,0,0,0-3.16-1.69,11.64,11.64,0,0,0-8.79-.76q-4.12,1.39-6.52,6.73t-.6,9.72a12.93,12.93,0,0,0,7,6.56,28.27,28.27,0,0,0,7.68,2.23l-.75,5.19A30.3,30.3,0,0,1,413.69,826.52Z" transform="translate(-232.42 -229.18)"/><path class="cls-2" d="M472.92,845.22l5.57-33.47,6.44,1.07L482.57,827l15.82,2.63,2.35-14.16,6.44,1.07L501.61,850l-6.44-1.07,2.38-14.3L481.74,832l-2.38,14.29Z" transform="translate(-232.42 -229.18)"/><path class="cls-2" d="M572.16,850.66q-8.35.9-13.3-3.29T553,835q-.85-7.92,3.54-13.16t12.71-6.14q8.44-.91,13.31,3.39t5.71,12.17q.88,8.07-3.36,13.26T572.16,850.66Zm-.42-5.22c3.81-.41,6.53-1.84,8.13-4.29a13.65,13.65,0,0,0,1.8-9.2,13.42,13.42,0,0,0-3.75-8.52c-2.11-2-4.94-2.84-8.5-2.46s-6.35,1.81-8,4.22a13.27,13.27,0,0,0-1.84,9.06,14.07,14.07,0,0,0,3.68,8.58Q566.4,846,571.74,845.44Z" transform="translate(-232.42 -229.18)"/><path class="cls-2" d="M656.17,829.66q-7.78,3.15-13.69.47t-9-10.29q-3-7.38-.18-13.62t10.55-9.38q7.88-3.18,13.72-.38t8.83,10.15q3,7.51.38,13.67T656.17,829.66Zm-1.83-4.9q5.34-2.18,6.64-6.35a13.62,13.62,0,0,0-.77-9.34,13.44,13.44,0,0,0-5.94-7.17q-3.87-2.07-8.85,0c-3.44,1.4-5.61,3.47-6.51,6.24a13.28,13.28,0,0,0,.7,9.22,14.11,14.11,0,0,0,5.89,7.24Q649.36,826.77,654.34,824.76Z" transform="translate(-232.42 -229.18)"/><path class="cls-2" d="M718.21,795.78,698.1,768.44l5.26-3.87,17,23.09,11.87-8.73,3.13,4.25Z" transform="translate(-232.42 -229.18)"/><path class="cls-3" d="M328.69,761.24c.56-.49,1.11-1,1.64-1.58a2.56,2.56,0,0,1,1-.74A44.71,44.71,0,0,0,335,755a6.25,6.25,0,0,1,.58-.79c.59-.71,1.12-1.42,1.62-2.14a28.49,28.49,0,0,0,2.44-4.31.54.54,0,0,0,.05-.11,3,3,0,0,0,.14-.33A21,21,0,0,0,339.5,731c-2.56-6.27-4.52-6.54-8.88-1.36a20.39,20.39,0,0,0-4.39,18.73c-3.38-3.38-6.52-6.88-9.77-10.27-1.09-1.15-.87-1.77.28-2.65a18.73,18.73,0,0,0,5.4-6.85c3.19-6.69,3.4-13.33-.43-19.87-.49-.84-.91-1.75-2.23-1-4.84,2.81-8.38,6.63-10.05,12.08-.86,2.77-.76,5.61-.64,9.1-3-4.07-5.39-7.64-8.06-11-1.49-1.89-1.54-3.09.81-4.14a8.63,8.63,0,0,0,2.08-1.68A20.61,20.61,0,0,0,309,689.68c-.68-1.71-1.31-2.47-3.3-1.48a22.72,22.72,0,0,0-7.39,5.5,21,21,0,0,0-4.72,12.84c-2.43-4-4.55-8-6.85-11.92-1-1.69-.92-2.45,1-3.42,8.51-4.3,12.9-13.89,10.63-22.5-.51-1.94-1.18-2.63-3.31-1.86-7.77,2.84-12.49,8.1-13.52,16.82-2.28-4.62-3.84-9.09-5.68-13.44-.79-1.86-.48-2.51,1.49-3.21,9-3.18,14.55-12.58,12.78-21.17-.19-.9-.12-1.93-1.69-1.67-5.67.92-10.32,3.45-13.58,8.26a24.11,24.11,0,0,0-2.57,6.07c-1.28-1.5-.91-2.78-.32-4.2,3.83-9.14,1-18.68-7.12-24.41-1.55-1.1-2.32-.79-3.26.63-5.16,7.86-3.69,18.55,3.84,24.14a11.09,11.09,0,0,1,4.46,7.53c-.07,0-.19,0-.23,0-.59-.67-1.13-1.39-1.76-2-6-6-13-8.47-21.36-6.28-1.52.4-1.87,1-1.34,2.52,3.72,11,14.57,16.44,25.62,12.69,1.12-.38,1.45-.25,1.87.87,1.75,4.65,3.64,9.25,5.48,13.88a8.11,8.11,0,0,1,1.06,3.16c-.89-.77-1.53-1.38-2.22-1.92-6.28-4.86-13.19-6.57-20.89-4.09-3.23,1-3.31,1.37-1.77,4.29a20.07,20.07,0,0,0,26.93,8.94c.55-.26,1.23-1.18,1.8,0,2.72,5.52,5.8,10.85,8.76,16.27a5.7,5.7,0,0,1-1.53-.81c-7.46-4.85-15.19-5.93-23.39-1.89-1.86.92-2.21,1.72-1,3.61,6.52,9.93,18.86,12.78,28.89,6.54.59-.37,1.13-1.31,2-.12,3.44,4.91,6.94,9.78,10.5,14.78-1.7-.69-3.22-1.38-4.78-1.94-7.65-2.78-14.88-2.16-21.55,2.76-.86.64-1.37,1.11-.53,2.31,6.24,8.91,19.1,11.79,28.07,6.17,1.44-.9,3-2.94,4.1-2.7,1.42.31,2.43,2.42,3.64,3.73,3,3.2,5.93,6.39,9.19,9.9-2.08-.6-3.68-1.18-5.33-1.53-8.09-1.74-15.36-.28-21.46,5.63-.88.85-1,1.35-.09,2.35,8.22,8.8,21.19,9.58,29.95,2.08Z" transform="translate(-232.42 -229.18)"/><path class="cls-3" d="M746.55,759a22.1,22.1,0,0,1-1.65-1.57,2.42,2.42,0,0,0-1-.75,42.19,42.19,0,0,1-3.64-3.88,6.08,6.08,0,0,0-.57-.79c-.59-.7-1.13-1.41-1.63-2.13a29.4,29.4,0,0,1-2.44-4.32l0-.11-.14-.33a20.92,20.92,0,0,1,.29-16.36c2.55-6.28,4.52-6.54,8.88-1.37A20.41,20.41,0,0,1,749,746.09c3.39-3.37,6.52-6.87,9.77-10.27,1.09-1.15.87-1.76-.27-2.65a18.62,18.62,0,0,1-5.4-6.84c-3.19-6.69-3.41-13.33.42-19.87.5-.85.91-1.75,2.23-1,4.84,2.8,8.38,6.62,10.06,12.07.85,2.78.75,5.61.64,9.11,2.95-4.08,5.39-7.65,8-11,1.49-1.9,1.55-3.1-.8-4.14a8.53,8.53,0,0,1-2.08-1.69,20.63,20.63,0,0,1-5.43-22.38c.68-1.71,1.32-2.47,3.3-1.47a22.48,22.48,0,0,1,7.39,5.5,21,21,0,0,1,4.73,12.83c2.43-4,4.55-8,6.84-11.92,1-1.68.93-2.44-1-3.42-8.52-4.29-12.91-13.89-10.63-22.49.51-2,1.18-2.64,3.3-1.86,7.78,2.83,12.5,8.09,13.53,16.81,2.27-4.62,3.83-9.09,5.67-13.44.79-1.86.48-2.51-1.49-3.2-9-3.18-14.55-12.59-12.78-21.18.19-.9.13-1.92,1.7-1.67,5.66.92,10.32,3.45,13.57,8.27a23.26,23.26,0,0,1,2.57,6.07c1.29-1.5.92-2.78.32-4.21-3.82-9.14-1-18.68,7.13-24.41,1.55-1.1,2.32-.78,3.25.64,5.16,7.85,3.7,18.55-3.84,24.14a11.11,11.11,0,0,0-4.46,7.52c.08,0,.2,0,.23,0,.59-.67,1.13-1.39,1.76-2,6-6,13-8.48,21.37-6.28,1.51.39,1.87,1,1.33,2.52-3.71,11-14.57,16.43-25.62,12.69-1.12-.38-1.44-.26-1.86.86-1.76,4.66-3.65,9.26-5.49,13.88a7.94,7.94,0,0,0-1,3.17c.89-.78,1.53-1.39,2.22-1.93,6.27-4.86,13.19-6.57,20.89-4.08,3.22,1,3.31,1.36,1.77,4.28a20.08,20.08,0,0,1-26.93,9c-.55-.27-1.23-1.18-1.8,0-2.72,5.52-5.8,10.84-8.77,16.26a6.22,6.22,0,0,0,1.54-.8c7.45-4.85,15.19-5.94,23.38-1.9,1.87.92,2.22,1.73,1,3.61-6.52,9.93-18.87,12.78-28.9,6.55-.59-.37-1.12-1.32-2-.12-3.43,4.91-6.93,9.77-10.49,14.78,1.69-.7,3.21-1.38,4.78-2,7.65-2.78,14.87-2.15,21.55,2.77.86.64,1.37,1.1.53,2.31-6.24,8.9-19.1,11.78-28.08,6.16-1.44-.9-3-2.94-4.1-2.7-1.41.31-2.42,2.43-3.63,3.74-3,3.2-5.93,6.38-9.19,9.9,2.07-.61,3.67-1.18,5.32-1.54,8.09-1.73,15.36-.28,21.47,5.64.87.84,1,1.35.08,2.34-8.22,8.8-21.18,9.58-30,2.09Z" transform="translate(-232.42 -229.18)"/><path class="cls-1" d="M454.23,377.1V328.68h11.9v18.94h17.16V328.68h11.89V377.1H483.29V357.87H466.13V377.1Z" transform="translate(-232.42 -229.18)"/><path class="cls-1" d="M504.58,371.12a32.91,32.91,0,0,1,3.31-3.56q2-1.86,3.59-3.13a41.28,41.28,0,0,1,3.67,3.16,43.75,43.75,0,0,1,3.31,3.53,35.81,35.81,0,0,1-3.38,3.63,38.44,38.44,0,0,1-3.6,3.06q-1.64-1.28-3.56-3.1A34.06,34.06,0,0,1,504.58,371.12Z" transform="translate(-232.42 -229.18)"/><path class="cls-1" d="M556.84,328.68c0,.57,0,1.29-.07,2.17s-.11,1.82-.18,2.81-.18,2-.32,2.89a12.62,12.62,0,0,1-.57,2.38H547v27.92h9.83c0,.57,0,1.29-.07,2.17s-.11,1.81-.18,2.81-.18,2-.32,2.88a12.55,12.55,0,0,1-.57,2.39H525.51V366.85h9.54V338.93h-9.54V328.68Z" transform="translate(-232.42 -229.18)"/><path class="cls-1" d="M563.89,371.12a32.91,32.91,0,0,1,3.31-3.56q1.95-1.86,3.59-3.13a41.28,41.28,0,0,1,3.67,3.16,43.75,43.75,0,0,1,3.31,3.53,34.7,34.7,0,0,1-3.38,3.63,37.2,37.2,0,0,1-3.6,3.06c-1.09-.85-2.27-1.88-3.56-3.1A35.15,35.15,0,0,1,563.89,371.12Z" transform="translate(-232.42 -229.18)"/><path class="cls-1" d="M600.06,368.06a29.17,29.17,0,0,0,5.09-.36,9,9,0,0,0,3.06-1,3.75,3.75,0,0,0,1.53-1.6,4.67,4.67,0,0,0,.43-2,2.93,2.93,0,0,0-1.07-2.42,8.89,8.89,0,0,0-2.81-1.42,28.56,28.56,0,0,0-4-1c-1.49-.26-3-.57-4.55-.93a32.07,32.07,0,0,1-4.56-1.42,13.35,13.35,0,0,1-4-2.46,11.55,11.55,0,0,1-2.81-3.95,14.59,14.59,0,0,1-1.07-5.95,15.77,15.77,0,0,1,1.53-7.3,12.68,12.68,0,0,1,4.31-4.8,18.68,18.68,0,0,1,6.73-2.67,43.08,43.08,0,0,1,8.79-.82,51.38,51.38,0,0,1,7,.46,36.38,36.38,0,0,1,5.88,1.25,38.61,38.61,0,0,1-.39,5.3,13.84,13.84,0,0,1-1.25,4.45,45.32,45.32,0,0,0-6-1.28,42.45,42.45,0,0,0-5.81-.43q-4.85,0-6.87,1.11a3.56,3.56,0,0,0-2,3.31,3,3,0,0,0,1.85,2.85,21.23,21.23,0,0,0,4.6,1.56c1.82.43,3.82.88,6,1.36a21.66,21.66,0,0,1,6,2.24,13.35,13.35,0,0,1,4.59,4.27,13,13,0,0,1,1.85,7.37,15.65,15.65,0,0,1-1.57,7.3,13.37,13.37,0,0,1-4.41,5,19.22,19.22,0,0,1-6.8,2.85,40.29,40.29,0,0,1-8.79.89c-1.19,0-2.51,0-4-.1s-2.85-.18-4.21-.32-2.58-.33-3.7-.54a8.81,8.81,0,0,1-2.46-.75c-.19-.66-.38-1.41-.57-2.24s-.34-1.7-.46-2.6-.22-1.79-.32-2.67-.17-1.7-.21-2.46q1.2.36,3.06.72c1.23.23,2.54.44,3.92.6s2.8.31,4.27.43S598.73,368.06,600.06,368.06Z" transform="translate(-232.42 -229.18)"/></svg>